<?xml version="1.0" encoding="utf-8"?>
<!DOCTYPE svg PUBLIC "-//W3C//DTD SVG 1.1//EN" "http://www.w3.org/Graphics/SVG/1.1/DTD/svg11.dtd">
<svg version="1.1" id="Layer_1" xmlns="http://www.w3.org/2000/svg" xmlns:xlink="http://www.w3.org/1999/xlink" x="0px" y="0px"
	 width="841.89px" height="595.28px" viewBox="0 0 841.89 595.28" enable-background="new 0 0 841.89 595.28" xml:space="preserve">
<path d="M607.503,232.177c-2.684-13.618-7.164-26.967-12.288-39.54c-7.699-18.837-16.903-35.918-24.229-48.465
	c-7.329-12.537-11.295-18.818-16.078-18.831c-6.938-0.02-15.633,8.681-15.633,8.681h-53.149l-2.498-45.553
	c-0.356-6.563-6.033-11.932-12.604-11.932h-204.33c-6.572,0-12.246,5.37-12.604,11.932l-22.17,404.511
	c0,14.229,61.311,25.763,136.94,25.763s136.94-11.533,136.94-25.763l-3.769-68.759c11.674-3.44,31.734-11.212,42.114-18.524
	c8.021-5.644,15.567-12.636,22.401-21.017c5.131-6.288,9.87-13.343,14.199-21.204c6.496-11.801,12.086-25.396,16.802-41.086
	c4.716-15.693,8.564-33.495,11.529-53.799l0.002-0.002c0.621-4.266,0.894-8.533,0.894-12.779
	C609.964,247.855,609.026,239.966,607.503,232.177z M555.207,317.511c-3.733,11.049-7.852,20.18-12.178,27.696
	c-3.244,5.64-6.601,10.374-10.029,14.391c-5.149,6.021-10.425,10.451-16.001,13.92c-5.388,3.347-11.1,5.808-17.332,7.646
	l-11.266-205.608c12.424-0.573,42.648-1.301,52.438,4.514c8.33,4.948,12.722,13.019,17.069,23.175
	c3.9,9.105,5.414,19.314,6.551,28.452C567.99,260.088,560.186,302.778,555.207,317.511z"/>
</svg>
