<?xml version="1.0" encoding="UTF-8" standalone="no"?>
<svg
   xmlns:dc="http://purl.org/dc/elements/1.1/"
   xmlns:cc="http://creativecommons.org/ns#"
   xmlns:rdf="http://www.w3.org/1999/02/22-rdf-syntax-ns#"
   xmlns:svg="http://www.w3.org/2000/svg"
   xmlns="http://www.w3.org/2000/svg"
   xmlns:sodipodi="http://sodipodi.sourceforge.net/DTD/sodipodi-0.dtd"
   xmlns:inkscape="http://www.inkscape.org/namespaces/inkscape"
   width="15.20422"
   height="18.422155"
   viewBox="0 0 15.20422 18.422155"
   version="1.1"
   xml:space="preserve"
   style="clip-rule:evenodd;fill-rule:evenodd;stroke-miterlimit:1.5"
   id="svg4547"
   sodipodi:docname="hops.svg"
   inkscape:version="0.92.1 r15371"><metadata
     id="metadata4553"><rdf:RDF><cc:Work
         rdf:about=""><dc:format>image/svg+xml</dc:format><dc:type
           rdf:resource="http://purl.org/dc/dcmitype/StillImage" /><dc:title></dc:title></cc:Work></rdf:RDF></metadata><defs
     id="defs4551" /><sodipodi:namedview
     pagecolor="#ffffff"
     bordercolor="#666666"
     borderopacity="1"
     objecttolerance="10"
     gridtolerance="10"
     guidetolerance="10"
     inkscape:pageopacity="0"
     inkscape:pageshadow="2"
     inkscape:window-width="1366"
     inkscape:window-height="745"
     id="namedview4549"
     showgrid="false"
     fit-margin-top="0"
     fit-margin-left="0"
     fit-margin-right="0"
     fit-margin-bottom="0"
     inkscape:zoom="29.832796"
     inkscape:cx="3.7399117"
     inkscape:cy="9.1260105"
     inkscape:window-x="-8"
     inkscape:window-y="-8"
     inkscape:window-maximized="1"
     inkscape:current-layer="g4545"
     showguides="true"
     inkscape:guide-bbox="true"
     inkscape:snap-page="true" /><g
     id="g4545"
     transform="translate(-115.70489,-169.65659)"><path
       d="m 123.307,179.408 c -2.445,1.946 -2.357,3.765 0,5.469 2.357,-1.704 2.446,-3.523 0,-5.469 z"
       style="fill:#000000;fill-opacity:1;stroke:#ffffff;stroke-width:0.80000001px;stroke-opacity:1;stroke-linecap:round;stroke-linejoin:round"
       id="path4529"
       inkscape:connector-curvature="0" /><path
       d="m 123.283,177.323 c -0.838,3.338 0.423,4.616 3.148,5.322 0.846,-2.847 0.021,-4.533 -3.148,-5.322 z"
       style="fill:#000000;fill-opacity:1;stroke:#ffffff;stroke-width:0.80000001px;stroke-opacity:1;stroke-linecap:round;stroke-linejoin:round"
       id="path4531"
       inkscape:connector-curvature="0" /><path
       d="m 123.331,177.323 c 0.838,3.338 -0.423,4.616 -3.148,5.322 -0.846,-2.847 -0.021,-4.533 3.148,-5.322 z"
       style="fill:#000000;fill-opacity:1;stroke:#ffffff;stroke-width:0.80000001px;stroke-opacity:1;stroke-linecap:round;stroke-linejoin:round"
       id="path4533"
       inkscape:connector-curvature="0" /><path
       d="m 123.307,177.323 c -2.445,1.867 -2.357,3.612 0,5.247 2.357,-1.635 2.446,-3.38 0,-5.247 z"
       style="fill:#000000;fill-opacity:1;stroke:#ffffff;stroke-width:0.80000001px;stroke-opacity:1;stroke-linejoin:round"
       id="path4535"
       inkscape:connector-curvature="0" /><path
       d="m 123.745,175.627 c -0.463,3.38 0.924,4.523 3.695,4.963 0.525,-2.897 -0.475,-4.486 -3.695,-4.963 z"
       style="fill:#000000;fill-opacity:1;stroke:#ffffff;stroke-width:0.80000001px;stroke-opacity:1;stroke-linecap:round;stroke-linejoin:round"
       id="path4537"
       inkscape:connector-curvature="0" /><path
       d="m 122.869,175.627 c 0.464,3.38 -0.924,4.523 -3.695,4.963 -0.525,-2.897 0.475,-4.486 3.695,-4.963 z"
       style="fill:#000000;fill-opacity:1;stroke:#ffffff;stroke-width:0.80000001px;stroke-opacity:1;stroke-linecap:round;stroke-linejoin:round"
       id="path4539"
       inkscape:connector-curvature="0" /><path
       d="m 118.478,177.876 c 0.055,-3.079 2.301,-4.857 4.829,-4.874 2.528,-0.017 4.775,1.795 4.829,4.874 -1.276,0.018 -2.312,-0.146 -3.094,-0.627 -0.187,0.847 -0.772,1.672 -1.735,2.474 -0.963,-0.802 -1.548,-1.627 -1.735,-2.474 -0.782,0.481 -1.818,0.645 -3.094,0.627 z"
       style="fill:#040404;fill-opacity:1;stroke:#ffffff;stroke-width:0.8;stroke-opacity:1;stroke-miterlimit:1.5;stroke-dasharray:none;stroke-linejoin:round;stroke-linecap:round"
       id="path4541"
       inkscape:connector-curvature="0" /><path
       d="m 123.307,173.611 v -1.323"
       style="fill:none;stroke:#000000;stroke-width:0.80000001px;stroke-linecap:round;stroke-opacity:1"
       id="path4543"
       inkscape:connector-curvature="0" /></g></svg>