<svg xmlns="http://www.w3.org/2000/svg" viewBox="0 0 400 480" fill="none">
  <!-- T-Shirt Back Template — greyscale for feColorMatrix tinting -->

  <!-- Body -->
  <path d="M120 140 L120 420 Q120 440 140 440 L260 440 Q280 440 280 420 L280 140"
        fill="#808080" />

  <!-- Left sleeve -->
  <path d="M120 140 L40 180 Q30 185 35 195 L70 260 Q75 265 80 260 L120 200"
        fill="#757575" />

  <!-- Right sleeve -->
  <path d="M280 140 L360 180 Q370 185 365 195 L330 260 Q325 265 320 260 L280 200"
        fill="#757575" />

  <!-- Shoulder yoke -->
  <path d="M120 140 Q130 100 155 90 L200 85 L245 90 Q270 100 280 140"
        fill="#878787" />

  <!-- Back collar (no V-shape, just a curved neckline) -->
  <path d="M155 90 Q175 100 200 102 Q225 100 245 90 Q230 84 200 82 Q170 84 155 90"
        fill="#6a6a6a" />

  <!-- Center back seam -->
  <line x1="200" y1="102" x2="200" y2="440" stroke="#757575" stroke-width="0.8" opacity="0.3" />

  <!-- Side shadows (fold lines) -->
  <path d="M135 160 L135 420 Q135 435 140 440 L140 440 Q130 440 130 420 L130 160 Z"
        fill="#6e6e6e" opacity="0.5" />
  <path d="M265 160 L265 420 Q265 435 260 440 L260 440 Q270 440 270 420 L270 160 Z"
        fill="#6e6e6e" opacity="0.5" />

  <!-- Center highlight -->
  <path d="M185 120 L185 420 Q185 435 200 440 Q215 435 215 420 L215 120 Z"
        fill="#8c8c8c" opacity="0.25" />

  <!-- Hem line -->
  <line x1="130" y1="435" x2="270" y2="435" stroke="#6a6a6a" stroke-width="1" opacity="0.4" />
</svg>
